<?xml version="1.0" standalone="no"?>
<!DOCTYPE svg PUBLIC "-//W3C//DTD SVG 20010904//EN"
 "http://www.w3.org/TR/2001/REC-SVG-20010904/DTD/svg10.dtd">
<svg version="1.0" xmlns="http://www.w3.org/2000/svg"
 width="1024.000000pt" height="1024.000000pt" viewBox="0 0 1024.000000 1024.000000"
 preserveAspectRatio="xMidYMid meet">

<g transform="translate(0.000000,1024.000000) scale(0.100000,-0.100000)"
fill="#000000" stroke="none">
<path d="M4280 9129 c-397 -25 -482 -32 -655 -50 -599 -62 -1020 -146 -1230
-245 -66 -31 -134 -90 -151 -131 -21 -48 -18 -97 20 -339 81 -512 184 -858
359 -1205 175 -347 403 -625 690 -840 169 -127 280 -191 627 -362 327 -161
450 -236 553 -335 258 -248 339 -567 366 -1437 15 -468 -2 -1154 -35 -1445
-28 -244 -88 -458 -168 -594 l-25 -43 -118 -12 c-166 -18 -405 -57 -563 -93
-360 -81 -612 -210 -698 -358 -23 -38 -27 -57 -27 -121 0 -72 2 -79 39 -133
208 -302 919 -452 2048 -433 189 3 368 9 398 12 555 57 897 146 1085 279 179
128 217 269 116 428 -127 200 -631 371 -1231 418 -79 6 -149 14 -154 17 -4 3
-28 47 -52 97 -124 261 -165 702 -168 1781 -1 550 1 650 17 790 22 192 48 327
89 455 53 167 106 258 222 378 125 130 235 196 491 296 366 143 496 204 665
313 554 357 958 1025 1134 1873 46 223 89 515 82 554 -18 97 -187 196 -457
270 -200 54 -394 92 -699 136 -211 30 -694 64 -1135 80 -314 11 -1252 11
-1435 -1z m1745 -99 c652 -24 1082 -81 1501 -201 229 -66 384 -152 384 -215 0
-34 -69 -88 -156 -122 -214 -83 -787 -161 -1444 -197 -1128 -62 -2421 -33
-3187 70 -467 64 -722 151 -711 244 8 64 204 140 482 187 510 85 1100 128
1931 140 259 4 490 10 515 15 25 4 -234 6 -575 4 -581 -4 -873 -15 -1225 -45
-592 -50 -1066 -157 -1148 -259 -7 -9 -11 -32 -8 -53 7 -66 -40 -43 -50 24
-15 88 123 160 446 232 160 36 331 67 470 86 47 6 114 15 150 20 561 79 1612
107 2625 70z m-3587 -539 c50 -25 55 -34 10 -19 -40 13 -98 55 -98 70 0 6 10
2 23 -9 12 -11 41 -30 65 -42z m5447 -93 c-100 -657 -271 -1120 -568 -1538
-142 -198 -372 -421 -572 -553 -266 -175 -764 -349 -1200 -417 -167 -27 -487
-37 -647 -21 -462 45 -1010 214 -1344 412 -644 384 -1015 1001 -1174 1953 -16
99 -28 181 -26 183 1 2 32 -9 67 -23 235 -96 705 -167 1384 -210 332 -21 1472
-30 1845 -15 1103 45 1946 141 2191 250 24 11 46 20 47 20 2 1 1 -18 -3 -41z
m-3635 -2482 c218 -64 303 -92 361 -117 88 -38 161 -56 299 -75 177 -23 535
-17 658 12 24 6 25 5 12 -9 -31 -31 -121 -69 -197 -82 -95 -17 -449 -20 -578
-4 -86 10 -138 28 -215 75 -77 46 -298 161 -353 183 -31 13 -60 28 -64 34 -4
6 0 8 8 5 8 -3 39 -13 69 -22z m1624 -65 c-61 -33 -94 -47 -79 -32 13 13 107
60 120 61 6 0 -13 -13 -41 -29z m-983 -330 c160 -40 201 -59 225 -107 18 -37
19 -64 19 -464 0 -234 -4 -771 -9 -1195 -9 -769 -1 -1240 25 -1475 12 -109 5
-174 -21 -200 -27 -27 -137 -35 -234 -16 -75 15 -112 15 -70 0 10 -4 38 -15
61 -25 77 -33 155 -43 308 -43 115 0 159 4 190 17 l40 16 24 -32 c73 -95 254
-235 354 -272 l48 -18 -28 -19 c-100 -66 -395 -109 -750 -109 -291 1 -503 35
-635 102 -21 11 -38 23 -38 27 0 4 16 18 35 31 20 13 73 63 118 111 244 256
346 535 389 1065 18 221 18 1466 0 1695 -30 390 -91 717 -162 867 -16 36 -30
67 -30 69 0 8 28 3 141 -25z m459 -45 c0 -3 -9 -20 -20 -38 -33 -57 -71 -188
-92 -323 -19 -118 -21 -188 -25 -775 -5 -638 8 -1404 28 -1645 23 -274 56
-420 130 -569 22 -43 38 -80 37 -80 -54 -30 -126 -34 -156 -8 -25 21 -66 192
-82 342 -41 401 -39 1973 5 2737 15 264 21 299 48 321 23 19 127 50 127 38z
m-760 -3422 c0 -3 -14 -26 -31 -50 -45 -66 -143 -168 -227 -236 -85 -70 -85
-69 22 -129 154 -85 397 -129 718 -129 314 0 580 38 766 110 80 31 126 63 119
83 -2 6 -26 23 -53 37 -27 14 -71 41 -99 60 -57 38 -235 213 -235 229 0 12 13
11 275 -26 512 -71 922 -237 1004 -406 107 -221 -198 -407 -814 -496 -296 -43
-456 -54 -830 -55 -390 0 -615 11 -936 49 -316 37 -526 90 -709 178 -145 70
-230 171 -230 272 0 76 100 184 233 251 189 96 606 204 1020 263 4 1 7 -2 7
-5z"/>
<path d="M7542 8137 c-4 -85 -44 -333 -55 -343 -7 -7 -64 -22 -127 -34 -63
-12 -146 -28 -185 -35 -134 -26 -532 -77 -785 -100 -815 -73 -1575 -79 -2435
-20 -310 22 -759 75 -1010 121 -225 41 -231 42 -289 60 -61 19 -61 19 -97 169
-15 63 -33 86 -24 30 31 -189 77 -364 136 -516 46 -120 155 -329 226 -434 99
-147 257 -318 408 -442 73 -60 155 -116 161 -111 2 3 -41 44 -96 92 -272 239
-499 556 -648 906 -57 134 -105 270 -98 277 3 3 65 -11 138 -31 151 -40 388
-87 558 -111 63 -8 142 -20 175 -25 96 -15 408 -44 590 -55 50 -3 119 -8 155
-10 179 -13 853 -26 1055 -20 434 11 864 36 1130 65 349 39 770 108 965 159
41 11 77 18 79 15 9 -8 -61 -237 -115 -375 -109 -283 -260 -517 -464 -720
-259 -257 -517 -409 -917 -540 -142 -47 -180 -70 -60 -38 259 71 485 165 674
280 240 147 483 391 636 639 104 170 220 455 268 664 12 50 26 97 31 103 6 7
29 18 51 24 63 17 127 50 127 65 0 10 -7 10 -37 -3 -52 -22 -134 -45 -139 -40
-3 2 3 59 11 125 9 67 14 150 12 184 -2 35 -4 46 -5 25z"/>
<path d="M5442 1833 c18 -26 50 -64 71 -85 20 -21 37 -40 37 -42 0 -8 -173
-45 -265 -57 -58 -7 -168 -10 -305 -7 -163 4 -205 3 -175 -5 23 -7 150 -11
305 -11 245 0 272 2 360 23 52 13 120 35 150 48 l55 24 -29 24 c-30 24 -220
135 -231 135 -3 0 9 -21 27 -47z"/>
<path d="M4027 1874 c-234 -64 -430 -171 -471 -258 -22 -46 -20 -111 3 -150
39 -63 179 -150 318 -197 226 -77 402 -105 842 -134 503 -34 1047 -10 1416 61
189 36 375 92 458 136 39 20 7 17 -54 -6 -90 -33 -348 -91 -514 -115 -319 -46
-439 -54 -795 -55 -458 -1 -791 25 -1095 85 -305 60 -486 144 -551 255 -20 34
-25 52 -20 77 18 91 186 200 421 272 171 53 174 53 150 53 -11 1 -60 -10 -108
-24z"/>
</g>
</svg>
